<?xml version="1.0" standalone="no"?>
<!DOCTYPE svg PUBLIC "-//W3C//DTD SVG 20010904//EN"
 "http://www.w3.org/TR/2001/REC-SVG-20010904/DTD/svg10.dtd">
<svg version="1.0" xmlns="http://www.w3.org/2000/svg"
 width="807.000000pt" height="807.000000pt" viewBox="0 0 807.000000 807.000000"
 preserveAspectRatio="xMidYMid meet">
<metadata>
Created by potrace 1.11, written by Peter Selinger 2001-2013
</metadata>
<g transform="translate(0.000000,807.000000) scale(0.100000,-0.100000)"
fill="#000000" stroke="none">
<path d="M2977 7974 c-1 -1 -157 -5 -347 -9 -190 -3 -361 -8 -380 -10 -103 -9
-172 -19 -279 -40 -236 -46 -592 -188 -769 -306 -24 -16 -45 -29 -47 -29 -8 0
-213 -148 -252 -182 -64 -55 -207 -201 -238 -243 -17 -22 -32 -42 -35 -45 -9
-8 -93 -123 -107 -145 -7 -11 -34 -56 -61 -100 -95 -154 -216 -422 -247 -545
-2 -8 -8 -30 -14 -47 -5 -18 -7 -33 -4 -33 3 0 1 -6 -4 -12 -6 -7 -14 -31 -18
-53 -5 -22 -9 -44 -11 -50 -2 -12 -21 -116 -29 -163 -11 -65 -16 -139 -23
-337 -9 -262 -9 -2999 1 -3225 10 -237 11 -252 53 -470 3 -14 12 -50 20 -80 8
-30 17 -65 20 -78 4 -22 37 -116 54 -157 4 -11 18 -47 31 -80 33 -87 114 -246
178 -350 51 -83 118 -183 131 -195 3 -3 18 -23 34 -45 16 -22 38 -49 50 -61
12 -11 35 -37 51 -58 36 -46 198 -190 272 -243 67 -48 189 -129 203 -136 8 -4
35 -19 60 -33 50 -29 162 -88 170 -89 3 0 14 -6 25 -12 19 -10 92 -39 210 -83
78 -29 193 -61 310 -86 54 -11 155 -27 195 -30 25 -1 80 -6 123 -9 279 -20
3285 -21 3482 -1 22 2 76 7 120 11 44 4 100 11 125 16 25 5 60 12 78 14 18 3
67 15 110 26 42 12 81 22 87 23 81 15 500 194 525 225 5 6 55 34 97 55 13 6
23 14 23 18 0 4 15 14 34 23 18 9 43 25 54 35 12 11 24 20 27 20 4 0 12 6 19
13 7 6 28 23 46 37 88 65 211 184 280 269 19 23 40 48 45 54 20 23 111 153
135 192 13 22 26 42 29 45 15 13 123 227 176 345 16 37 60 159 71 195 39 141
55 200 59 225 3 17 8 37 10 45 2 8 6 33 10 55 3 22 8 54 11 72 22 122 28 529
28 1933 0 1232 -5 1749 -19 1818 -2 11 -6 49 -10 83 -4 35 -8 66 -10 69 -2 3
-6 21 -9 40 -8 48 -12 69 -24 115 -6 22 -13 51 -16 65 -5 27 -41 138 -76 234
-37 103 -184 396 -202 404 -5 2 -8 8 -8 14 0 13 -95 150 -168 243 -51 64 -211
229 -257 265 -172 132 -239 180 -255 180 -5 0 -10 5 -10 10 0 6 -4 10 -9 10
-5 0 -38 17 -72 38 -54 33 -194 103 -264 132 -11 4 -37 15 -57 24 -35 16 -204
73 -238 82 -8 2 -44 11 -80 19 -36 9 -74 18 -85 21 -182 37 -220 40 -635 50
-227 5 -2498 12 -2503 8z"/>
</g>
</svg>
